<?xml version="1.0" standalone="no"?>
<!DOCTYPE svg PUBLIC "-//W3C//DTD SVG 20010904//EN"
 "http://www.w3.org/TR/2001/REC-SVG-20010904/DTD/svg10.dtd">
<svg version="1.0" xmlns="http://www.w3.org/2000/svg"
 width="700.000000pt" height="700.000000pt" viewBox="0 0 700.000000 700.000000"
 preserveAspectRatio="xMidYMid meet">
<metadata>
Created by potrace 1.11, written by Peter Selinger 2001-2013
</metadata>
<g transform="translate(0.000000,700.000000) scale(0.100000,-0.100000)"
fill="#000000" stroke="none">
<path d="M2988 5775 c-2 -2 -32 -5 -68 -9 -36 -3 -76 -8 -90 -11 -14 -2 -65
-11 -115 -20 -49 -9 -103 -18 -120 -21 -16 -3 -37 -7 -45 -10 -8 -3 -28 -8
-45 -11 -53 -9 -232 -71 -297 -104 -157 -79 -341 -233 -451 -377 -26 -34 -47
-64 -47 -67 0 -2 -13 -23 -29 -47 -76 -113 -201 -400 -226 -518 -17 -83 -29
-108 -73 -147 -63 -57 -174 -112 -237 -118 -98 -9 -145 -17 -151 -26 -3 -5 -9
-7 -14 -4 -8 5 -40 -54 -40 -75 0 -7 11 -23 25 -36 16 -15 25 -34 25 -53 0
-22 8 -35 32 -52 18 -13 35 -27 36 -31 2 -4 7 -8 12 -8 4 0 34 -16 66 -35 33
-20 119 -65 192 -101 73 -36 136 -73 140 -82 6 -17 8 -19 101 -128 34 -40 61
-76 61 -81 0 -6 -12 -15 -27 -22 -108 -48 -317 -219 -405 -331 -69 -88 -148
-264 -164 -367 -3 -20 -7 -44 -9 -53 -11 -57 -23 -165 -26 -235 -2 -41 12
-209 21 -250 6 -27 13 -63 16 -79 18 -95 122 -318 164 -356 4 -3 13 -15 22
-28 26 -38 133 -147 169 -172 19 -14 42 -32 52 -41 10 -9 34 -25 53 -35 23
-13 32 -24 29 -34 -5 -11 -3 -12 5 -4 9 9 25 4 66 -19 36 -21 50 -34 41 -39
-8 -5 -5 -8 8 -6 37 3 56 -2 50 -12 -3 -5 0 -7 9 -4 17 7 59 -13 52 -25 -3 -4
6 -6 19 -3 14 2 25 0 25 -5 0 -5 12 -10 26 -11 15 -1 32 -6 38 -11 6 -4 40
-17 75 -27 35 -10 66 -24 68 -31 3 -7 9 -13 15 -13 5 0 6 5 2 12 -5 8 -2 9 10
5 10 -4 20 -7 22 -7 3 0 2 -4 -1 -10 -3 -6 1 -7 9 -4 18 7 21 -7 6 -22 -7 -7
-6 -11 4 -11 8 0 15 3 14 6 -2 18 3 31 13 31 5 0 7 -4 4 -10 -3 -6 1 -7 10 -4
8 4 21 1 29 -5 7 -6 16 -8 19 -4 4 3 7 1 7 -5 0 -7 5 -12 11 -12 5 0 7 6 4 12
-4 7 3 2 14 -12 13 -16 19 -19 15 -8 -6 17 -3 17 35 3 23 -8 41 -11 41 -7 0 4
7 -2 15 -12 8 -11 15 -14 15 -8 0 7 7 12 15 12 8 0 15 -5 15 -12 0 -6 3 -8 7
-5 3 4 13 1 21 -6 9 -7 13 -7 9 -1 -4 7 2 9 19 6 16 -3 22 -8 16 -16 -12 -14
-11 -47 0 -40 5 3 6 10 2 15 -7 12 15 41 27 34 4 -3 5 -13 2 -23 -4 -13 -2
-13 10 3 14 17 18 18 27 5 9 -13 10 -13 10 0 0 13 1 13 10 0 5 -8 10 -11 10
-6 0 6 7 1 15 -10 13 -16 14 -16 9 -1 -7 20 -2 20 46 8 30 -8 139 -19 203 -21
12 0 16 -4 11 -12 -5 -8 0 -7 11 2 17 13 18 13 13 -1 -4 -9 -1 -16 7 -16 8 0
13 5 12 11 -1 6 4 10 12 8 7 -1 33 -3 58 -4 39 0 44 -3 40 -19 -3 -11 -1 -17
4 -13 5 3 9 12 9 20 0 8 5 14 11 14 6 0 9 -8 7 -18 -3 -11 0 -19 7 -19 7 0 10
8 7 19 -2 10 1 18 7 18 7 0 9 -6 5 -12 -6 -10 -4 -10 7 0 20 18 33 15 18 -5
-13 -17 -13 -17 6 -1 27 22 34 23 51 1 10 -13 13 -14 9 -2 -4 10 0 16 9 16 8
0 13 -4 10 -9 -3 -4 0 -8 5 -8 6 0 11 4 11 10 0 15 24 7 32 -10 5 -12 7 -11 7
3 1 10 6 15 11 12 6 -4 8 -12 4 -18 -3 -7 0 -5 8 3 15 17 128 25 128 9 0 -5 5
-9 11 -9 5 0 7 4 4 10 -4 6 7 10 27 10 18 0 44 3 57 7 19 5 22 3 16 -8 -7 -11
-6 -12 6 -3 8 6 32 12 54 12 22 1 67 4 99 6 33 3 68 0 78 -5 13 -7 16 -6 13 3
-4 10 8 13 45 13 27 0 50 4 50 9 0 4 8 2 17 -5 9 -8 14 -9 11 -4 -4 6 4 12 17
13 13 1 27 -3 30 -8 3 -6 12 -10 18 -10 7 0 6 4 -3 11 -12 9 -11 10 8 6 12 -3
22 -1 22 5 0 5 4 7 9 4 4 -3 22 -1 39 3 21 6 32 6 35 -2 2 -7 8 -7 18 -2 8 5
25 11 37 13 17 2 22 -1 16 -10 -6 -10 -5 -10 7 -2 22 17 54 22 74 11 13 -7 16
-6 11 2 -4 6 0 11 9 11 10 0 14 -5 10 -12 -4 -7 0 -6 7 4 11 12 18 14 32 6 14
-8 17 -7 12 1 -5 7 1 11 14 11 14 0 20 -5 17 -13 -3 -8 3 -13 14 -13 12 0 15
4 9 10 -18 18 -11 24 26 22 20 -1 38 2 41 7 3 4 12 2 21 -5 9 -7 13 -8 9 -2
-9 16 75 27 85 11 5 -8 8 -6 8 6 0 11 5 17 13 14 6 -2 11 -11 9 -18 -2 -9 6
-6 20 7 13 12 29 19 36 17 6 -3 12 0 12 7 0 6 5 8 11 5 7 -5 5 -13 -6 -25 -11
-12 -13 -20 -5 -25 6 -4 9 -1 8 7 -2 7 2 12 9 11 7 -2 10 6 8 18 -3 15 0 19
10 15 8 -3 15 -1 15 3 0 5 8 7 19 4 10 -3 22 0 26 7 5 8 11 7 23 -2 12 -10 14
-10 8 0 -7 12 15 17 57 14 11 -1 15 2 11 9 -5 8 3 10 24 7 17 -2 29 -1 26 4
-3 4 5 12 18 17 17 7 26 5 37 -7 13 -16 13 -16 8 1 -6 16 7 22 51 20 7 -1 11
2 8 5 -6 5 47 28 85 37 9 2 39 15 68 29 28 15 51 23 51 20 0 -4 8 0 18 9 10
10 22 14 25 10 4 -3 7 -1 7 6 0 7 4 10 9 7 5 -4 11 -3 13 1 1 5 26 19 53 33
28 14 52 28 55 32 3 3 30 23 60 44 76 52 136 109 231 216 38 44 41 47 89 118
25 36 48 67 53 68 4 2 7 8 7 13 0 5 15 32 34 61 50 80 169 336 180 389 2 8 6
21 9 29 5 13 24 80 33 115 22 92 44 188 48 218 3 20 9 54 12 75 3 20 7 87 8
149 3 98 0 138 -18 253 -12 79 -73 238 -102 267 -7 7 -21 24 -31 37 -41 51
-136 98 -228 113 -39 6 -167 5 -216 -2 -22 -3 -58 -8 -81 -11 -24 -3 -99 -16
-168 -29 -124 -24 -153 -29 -220 -40 -108 -17 -147 -21 -260 -30 -41 -3 -91
-8 -110 -10 -19 -3 -81 -7 -138 -10 l-102 -6 49 73 c46 69 107 174 110 190 1
4 10 28 21 52 70 164 97 372 75 586 -8 80 -7 79 -24 155 -93 416 -419 744
-907 914 -78 27 -171 54 -224 66 -44 9 -180 35 -210 40 -60 8 -297 24 -302 20z"/>
<path d="M5096 1498 c3 -5 10 -6 15 -3 13 9 11 12 -6 12 -8 0 -12 -4 -9 -9z"/>
<path d="M4990 1465 c0 -7 30 -13 34 -7 3 4 -4 9 -15 9 -10 1 -19 0 -19 -2z"/>
<path d="M1815 1420 c-3 -5 -1 -10 4 -10 6 0 11 5 11 10 0 6 -2 10 -4 10 -3 0
-8 -4 -11 -10z"/>
<path d="M4827 1419 c7 -7 15 -10 18 -7 3 3 -2 9 -12 12 -14 6 -15 5 -6 -5z"/>
<path d="M1895 1400 c-3 -5 -1 -10 4 -10 6 0 11 5 11 10 0 6 -2 10 -4 10 -3 0
-8 -4 -11 -10z"/>
<path d="M2030 1359 c0 -5 5 -7 10 -4 6 3 10 8 10 11 0 2 -4 4 -10 4 -5 0 -10
-5 -10 -11z"/>
<path d="M4816 1353 c-6 -14 -5 -15 5 -6 7 7 10 15 7 18 -3 3 -9 -2 -12 -12z"/>
<path d="M2113 1345 c0 -8 4 -12 9 -9 5 3 6 10 3 15 -9 13 -12 11 -12 -6z"/>
<path d="M4615 1340 c3 -5 8 -10 11 -10 2 0 4 5 4 10 0 6 -5 10 -11 10 -5 0
-7 -4 -4 -10z"/>
<path d="M4690 1345 c0 -7 30 -13 34 -7 3 4 -4 9 -15 9 -10 1 -19 0 -19 -2z"/>
<path d="M4430 1336 c0 -2 7 -9 15 -16 9 -7 15 -8 15 -2 0 5 -7 12 -15 16 -8
3 -15 4 -15 2z"/>
<path d="M2176 1318 c3 -5 10 -6 15 -3 13 9 11 12 -6 12 -8 0 -12 -4 -9 -9z"/>
<path d="M4305 1299 c-3 -4 2 -6 10 -5 21 3 28 13 10 13 -9 0 -18 -4 -20 -8z"/>
<path d="M2330 1296 c0 -2 8 -10 18 -17 15 -13 16 -12 3 4 -13 16 -21 21 -21
13z"/>
<path d="M4115 1290 c3 -5 8 -10 11 -10 2 0 4 5 4 10 0 6 -5 10 -11 10 -5 0
-7 -4 -4 -10z"/>
<path d="M4215 1290 c-4 -6 -11 -7 -17 -4 -7 4 -8 2 -4 -5 6 -9 11 -9 22 0 14
11 18 19 10 19 -3 0 -8 -5 -11 -10z"/>
<path d="M3950 1286 c0 -2 7 -6 15 -10 8 -3 15 -1 15 4 0 6 -7 10 -15 10 -8 0
-15 -2 -15 -4z"/>
<path d="M4035 1280 c-3 -5 -1 -10 4 -10 6 0 11 5 11 10 0 6 -2 10 -4 10 -3 0
-8 -4 -11 -10z"/>
<path d="M4236 1282 c-3 -5 1 -9 9 -9 8 0 12 4 9 9 -3 4 -7 8 -9 8 -2 0 -6 -4
-9 -8z"/>
<path d="M3827 1266 c-4 -10 -1 -13 8 -9 8 3 12 9 9 14 -7 12 -11 11 -17 -5z"/>
<path d="M2376 1262 c-3 -5 1 -9 9 -9 8 0 12 4 9 9 -3 4 -7 8 -9 8 -2 0 -6 -4
-9 -8z"/>
<path d="M2480 1260 c-9 -6 -10 -10 -3 -10 6 0 15 5 18 10 8 12 4 12 -15 0z"/>
<path d="M3746 1262 c-2 -4 4 -8 14 -8 10 0 16 4 14 8 -3 4 -9 8 -14 8 -5 0
-11 -4 -14 -8z"/>
<path d="M4293 1255 c0 -8 4 -12 9 -9 5 3 6 10 3 15 -9 13 -12 11 -12 -6z"/>
<path d="M2693 1243 c1 -15 5 -19 13 -13 6 6 13 8 16 5 2 -3 5 2 5 10 0 10 -4
12 -13 4 -8 -7 -14 -6 -17 3 -3 7 -4 3 -4 -9z"/>
<path d="M3714 1240 c0 -13 4 -16 10 -10 7 7 7 13 0 20 -6 6 -10 3 -10 -10z"/>
<path d="M3859 1258 c-5 -9 -5 -48 -1 -43 6 6 11 45 5 45 -2 0 -4 -1 -4 -2z"/>
<path d="M2765 1240 c3 -5 8 -10 11 -10 2 0 4 5 4 10 0 6 -5 10 -11 10 -5 0
-7 -4 -4 -10z"/>
<path d="M3554 1242 c3 -5 0 -13 -6 -15 -9 -4 -10 -6 -1 -6 17 -1 25 16 12 25
-7 4 -9 3 -5 -4z"/>
<path d="M3596 1238 c3 -5 10 -6 15 -3 13 9 11 12 -6 12 -8 0 -12 -4 -9 -9z"/>
<path d="M3632 1245 c3 -3 16 -8 28 -10 12 -2 20 -1 16 2 -4 4 -16 8 -28 10
-12 2 -19 1 -16 -2z"/>
<path d="M4045 1240 c-3 -6 1 -7 9 -4 18 7 21 14 7 14 -6 0 -13 -4 -16 -10z"/>
<path d="M2615 1231 c-3 -5 -2 -12 3 -15 5 -3 9 1 9 9 0 17 -3 19 -12 6z"/>
<path d="M3277 1229 c7 -7 15 -10 18 -7 3 3 -2 9 -12 12 -14 6 -15 5 -6 -5z"/>
<path d="M2516 1222 c-3 -5 1 -9 9 -9 8 0 12 4 9 9 -3 4 -7 8 -9 8 -2 0 -6 -4
-9 -8z"/>
<path d="M2575 1220 c3 -5 8 -10 11 -10 2 0 4 5 4 10 0 6 -5 10 -11 10 -5 0
-7 -4 -4 -10z"/>
<path d="M2887 1219 c7 -7 15 -10 18 -7 3 3 -2 9 -12 12 -14 6 -15 5 -6 -5z"/>
<path d="M3228 1223 c6 -3 10 -9 6 -14 -8 -14 2 -11 14 4 8 10 6 13 -11 14
-12 0 -16 -1 -9 -4z"/>
<path d="M3428 1223 c7 -3 16 -2 19 1 4 3 -2 6 -13 5 -11 0 -14 -3 -6 -6z"/>
<path d="M3468 1223 c6 -2 18 -2 25 0 6 3 1 5 -13 5 -14 0 -19 -2 -12 -5z"/>
<path d="M3885 1220 c-3 -6 1 -7 9 -4 18 7 21 14 7 14 -6 0 -13 -4 -16 -10z"/>
<path d="M3050 1217 c0 -2 6 -10 14 -16 11 -9 16 -9 22 1 4 7 4 10 -1 6 -4 -4
-14 -3 -22 3 -7 6 -13 9 -13 6z"/>
<path d="M3300 1206 c0 -2 8 -10 18 -17 15 -13 16 -12 3 4 -13 16 -21 21 -21
13z"/>
<path d="M3470 1200 c0 -5 5 -10 11 -10 5 0 7 5 4 10 -3 6 -8 10 -11 10 -2 0
-4 -4 -4 -10z"/>
<path d="M3639 1193 c-13 -17 -13 -17 6 -3 11 8 22 16 24 17 2 2 0 3 -6 3 -6
0 -17 -8 -24 -17z"/>
<path d="M3090 1180 c0 -5 5 -10 11 -10 5 0 7 5 4 10 -3 6 -8 10 -11 10 -2 0
-4 -4 -4 -10z"/>
<path d="M3255 1180 c3 -5 8 -10 11 -10 2 0 4 5 4 10 0 6 -5 10 -11 10 -5 0
-7 -4 -4 -10z"/>
<path d="M3146 1162 c-3 -5 1 -9 9 -9 8 0 15 4 15 9 0 4 -4 8 -9 8 -6 0 -12
-4 -15 -8z"/>
</g>
</svg>
